<svg width="24" height="25" viewBox="0 0 24 25" fill="none" xmlns="http://www.w3.org/2000/svg">
<path d="M12 24.0041C5.37306 24.0041 0 18.631 0 12.0041C0 5.37715 5.37306 0.00408936 12 0.00408936C18.6269 0.00408936 24 5.37715 24 12.0041C24 18.631 18.6269 24.0041 12 24.0041ZM17.9437 11.4849C17.9437 10.9755 17.5298 10.5616 17.0204 10.5616H13.3298V6.86858C13.3298 6.35919 12.9159 5.94531 12.4065 5.94531H11.4833C10.9739 5.94531 10.56 6.35919 10.56 6.86858V10.5616H6.86694C6.35755 10.5616 5.94367 10.9755 5.94367 11.4849V12.4082C5.94367 12.9176 6.35755 13.3314 6.86694 13.3314H10.56V17.0245C10.56 17.5339 10.9739 17.9478 11.4833 17.9478H12.4065C12.9159 17.9478 13.3298 17.5339 13.3298 17.0245V13.3314H17.0204C17.5298 13.3314 17.9437 12.9176 17.9437 12.4082V11.4849Z" fill="white"/>
</svg>
