<svg width="24" height="25" viewBox="0 0 24 25" fill="none" xmlns="http://www.w3.org/2000/svg">
<path d="M12 8.00415C9.79 8.00415 8 9.79415 8 12.0042C8 14.2142 9.79 16.0042 12 16.0042C14.21 16.0042 16 14.2142 16 12.0042C16 9.79415 14.21 8.00415 12 8.00415ZM20.94 11.0042C20.48 6.83415 17.17 3.52415 13 3.06415V1.00415H11V3.06415C6.83 3.52415 3.52 6.83415 3.06 11.0042H1V13.0042H3.06C3.52 17.1742 6.83 20.4842 11 20.9442V23.0042H13V20.9442C17.17 20.4842 20.48 17.1742 20.94 13.0042H23V11.0042H20.94ZM12 19.0042C8.13 19.0042 5 15.8742 5 12.0042C5 8.13415 8.13 5.00415 12 5.00415C15.87 5.00415 19 8.13415 19 12.0042C19 15.8742 15.87 19.0042 12 19.0042Z" fill="white"/>
</svg>
