<svg width="24" height="25" viewBox="0 0 24 25" fill="none" xmlns="http://www.w3.org/2000/svg">
<path d="M9.03067 0.36248C6.84348 0.944469 5.27858 1.84758 3.57311 3.57322C1.82747 5.29934 0.944614 6.84445 0.362736 9.11215C-0.359714 11.9417 0.00151073 15.0121 1.406 17.681C2.2487 19.3067 4.69646 21.755 6.32185 22.5978C8.99026 24.0026 12.0603 24.3639 14.8891 23.6415C17.1566 23.0598 18.7015 22.1765 20.427 20.4305C22.1726 18.7047 23.0555 17.1596 23.6374 14.8919C24.3596 12.062 23.9986 8.99163 22.5939 6.32272C21.7512 4.69727 19.3034 2.2488 17.6783 1.40594C15.0297 0.0212727 11.8397 -0.360106 9.03067 0.36248ZM17.7184 3.29251C18.8822 4.07511 19.9656 5.13865 20.668 6.24237C21.0089 6.76435 21.2496 7.22583 21.2097 7.266C21.1698 7.30617 20.0861 7.76764 18.8222 8.28938C17.5583 8.81135 16.4545 9.29267 16.3544 9.37326C16.274 9.45335 16.3343 9.91507 16.5148 10.3765C17.1569 12.2428 16.7756 13.8682 15.3108 15.3132C13.8662 16.7782 12.241 17.1596 10.3749 16.5173C9.91353 16.3368 9.45189 16.2765 9.37181 16.3569C9.29148 16.4573 8.81001 17.561 8.28838 18.8252C7.76675 20.0893 7.30511 21.1732 7.26495 21.2134C7.14446 21.3337 5.70005 20.3705 4.83703 19.5678C4.0345 18.8252 2.63 16.8786 2.79041 16.7382C2.83058 16.6981 3.91401 16.2366 5.17817 15.7146C6.44209 15.1728 7.5456 14.6912 7.64601 14.6109C7.72634 14.5506 7.66609 14.0892 7.4856 13.6277C6.84348 11.7612 7.22479 10.1358 8.68952 8.69084C10.1342 7.22583 11.7593 6.84445 13.6252 7.48669C14.0866 7.66746 14.5482 7.72747 14.6085 7.64713C14.6886 7.54671 15.1901 6.42315 15.7321 5.11857C16.2539 3.83408 16.7352 2.77053 16.8157 2.77053C16.8757 2.77053 17.2769 3.01131 17.7184 3.29251Z" fill="white"/>
<path d="M10.696 9.07184C8.66944 9.95462 8.18797 12.6439 9.77295 14.2294C11.077 15.5337 12.9231 15.5337 14.2272 14.2294C16.7153 11.741 13.9262 7.66708 10.696 9.07184ZM13.1036 10.8981C14.1067 11.8816 13.4045 13.6072 12.0001 13.6072C11.6187 13.6072 11.1975 13.4267 10.8965 13.1056C9.89344 12.1224 10.5956 10.3965 12.0001 10.3965C12.3811 10.3963 12.8026 10.577 13.1036 10.8981Z" fill="white"/>
</svg>
