<svg width="24" height="25" viewBox="0 0 24 25" fill="none" xmlns="http://www.w3.org/2000/svg">
<path d="M11.0486 2.36025C10.5573 3.68099 10.13 4.77177 10.0981 4.77814C10.0663 4.79087 9.12197 4.06989 7.99911 3.17674C6.87625 2.2836 5.95127 1.56899 5.93854 1.57536C5.93217 1.58809 6.1107 2.73642 6.34678 4.1272C6.58287 5.51161 6.7614 6.6663 6.74229 6.69202C6.71683 6.71112 5.54278 6.55806 4.12653 6.34744C2.71029 6.1432 1.54261 5.9774 1.53012 5.99014C1.52375 5.9965 2.24449 6.88965 3.13788 7.9743C4.03102 9.05259 4.77747 9.96484 4.79021 10.003C4.79658 10.0349 3.75037 10.4816 2.4551 10.9983C1.15984 11.5089 0.0560782 11.9554 0.00513935 11.9875C-0.0651465 12.032 0.579181 12.2936 2.32727 12.9443C3.65437 13.4355 4.74515 13.8629 4.75151 13.9013C4.76425 13.9332 4.04327 14.8775 3.15012 16.0004C2.25698 17.1232 1.536 18.0484 1.54873 18.0609C1.56147 18.0673 2.7098 17.8824 4.09421 17.6463C5.48499 17.4102 6.63968 17.2381 6.6654 17.2572C6.6845 17.2826 6.53144 18.4567 6.32082 19.8729C6.11658 21.2892 5.95078 22.4569 5.96352 22.4696C5.96988 22.4823 6.87576 21.7486 7.97315 20.8427C9.06418 19.9305 9.97642 19.1904 10.0019 19.1968C10.021 19.1968 10.4613 20.2557 10.9781 21.5573C11.4884 22.8524 11.9351 23.9498 11.967 24.0009C12.0052 24.0583 12.3115 23.3182 12.9177 21.6722C13.4089 20.3453 13.8363 19.2543 13.8747 19.248C13.9066 19.2352 14.8509 19.9562 15.9737 20.8493C17.0966 21.7425 18.0216 22.4571 18.0343 22.4507C18.0407 22.438 17.8558 21.2897 17.6197 19.9053C17.3836 18.5145 17.2115 17.3598 17.2369 17.3343C17.256 17.3152 18.4301 17.4683 19.8463 17.6725C21.2626 17.8831 22.4302 18.0489 22.443 18.0362C22.4557 18.0235 21.7093 17.1112 20.7906 16.0011C19.872 14.891 19.1319 13.9724 19.1447 13.966C19.1511 13.9596 20.2421 13.5257 21.5562 13.0089C22.8703 12.4922 23.9677 12.0455 23.9995 12.02C24.025 11.9946 22.9661 11.5733 21.639 11.0757C20.3182 10.5844 19.2275 10.1571 19.2211 10.1252C19.2084 10.0934 19.9293 9.14908 20.8225 8.02622C21.7156 6.90336 22.4302 5.97838 22.4239 5.96565C22.4111 5.95928 21.2628 6.14418 19.8784 6.38026C18.4876 6.61634 17.3329 6.78851 17.3075 6.7694C17.2884 6.74393 17.4414 5.56989 17.6457 4.15364C17.8563 2.7374 18.0221 1.56972 18.0093 1.55699C18.003 1.55062 17.0844 2.2907 15.9742 3.20932C14.8641 4.12793 13.9519 4.86801 13.9391 4.85528C13.9328 4.84891 13.4988 3.75789 12.9821 2.44376C12.4653 1.12964 12.0186 0.0258827 11.9932 0.000411987C11.9672 -0.0257912 11.5399 1.03315 11.0486 2.36025ZM12.7839 4.67601C13.1603 5.63944 13.4922 6.44957 13.5113 6.47504C13.5368 6.50051 14.245 5.95193 15.0806 5.25642C15.9228 4.56091 16.6181 3.99324 16.6244 3.9996C16.6372 4.01234 16.5096 4.91185 16.3501 6.00924C16.1907 7.10663 16.0695 8.01251 16.0822 8.02524C16.095 8.03161 16.9817 7.89128 18.0664 7.70614C19.1447 7.52124 20.0251 7.38091 20.0251 7.39365C20.0251 7.40002 19.4638 8.11463 18.781 8.98231C18.0985 9.84361 17.5369 10.571 17.5369 10.5964C17.5369 10.6219 18.36 10.941 19.3614 11.311C20.3631 11.6811 21.1925 11.9999 21.2116 12.0193C21.2244 12.0384 20.4079 12.383 19.3999 12.7785C18.3919 13.174 17.5497 13.5122 17.5242 13.5377C17.4987 13.5631 18.0473 14.2714 18.7428 15.107C19.4381 15.9492 20.006 16.6444 19.9933 16.6572C19.9869 16.6635 19.0874 16.5423 17.99 16.3765C16.8926 16.2171 15.9867 16.0959 15.974 16.1086C15.9676 16.1213 16.1079 17.0081 16.2931 18.0864C16.4782 19.1711 16.6186 20.0515 16.6058 20.0515C16.5995 20.0515 15.8848 19.4902 15.0172 18.8074C14.1559 18.1246 13.4285 17.5633 13.403 17.5633C13.3776 17.5633 13.0585 18.3864 12.6884 19.388C12.3184 20.3897 11.9993 21.2255 11.9802 21.238C11.9611 21.2507 11.6165 20.4342 11.221 19.4262C10.8255 18.4182 10.4809 17.576 10.4618 17.5506C10.4363 17.5251 9.7281 18.0737 8.89226 18.7692C8.05005 19.4644 7.35478 20.0324 7.34205 20.0196C7.33568 20.0133 7.45691 19.1138 7.6227 18.0164C7.78213 16.919 7.90336 16.0131 7.89062 16.0004C7.87789 15.9876 6.99111 16.1343 5.91282 16.3195C4.82817 16.5046 3.94776 16.6449 3.94776 16.6322C3.94776 16.6258 4.50907 15.9048 5.19821 15.0372C5.88074 14.1695 6.41682 13.4358 6.39111 13.4103C6.36564 13.3848 5.54915 13.0657 4.58572 12.7084C3.62229 12.3511 2.8058 12.0386 2.78033 12.0129C2.75486 11.9938 3.55861 11.6493 4.56662 11.2474C5.57462 10.8519 6.42319 10.5073 6.44866 10.4882C6.47413 10.4627 5.92556 9.75447 5.23005 8.91863C4.53454 8.07643 3.96686 7.38116 3.9796 7.36843C3.98596 7.36206 4.88547 7.48328 5.98286 7.64908C7.08025 7.80851 7.98613 7.92973 7.99887 7.917C8.00523 7.90426 7.86491 7.01749 7.67976 5.93283C7.49487 4.85454 7.3543 3.97413 7.36727 3.97413C7.38001 3.97413 8.10099 4.53544 8.9623 5.22459C9.82361 5.91348 10.5573 6.44957 10.5892 6.41748C10.6146 6.39202 10.9083 5.63283 11.2462 4.73969C11.5781 3.84654 11.8842 3.02344 11.9224 2.92132C11.9799 2.77462 12.0054 2.74915 12.0436 2.82556C12.0757 2.87699 12.4075 3.71283 12.7839 4.67601Z" fill="white"/>
<path d="M11.2072 3.96855C10.7978 5.06897 10.4416 5.9778 10.4151 5.98311C10.3886 5.99372 9.60164 5.393 8.66593 4.64884C7.73021 3.90468 6.95939 3.30927 6.94878 3.31458C6.94348 3.32519 7.09225 4.28197 7.28899 5.44075C7.48572 6.59423 7.6345 7.55631 7.61858 7.57773C7.59735 7.59365 6.61898 7.46612 5.43878 7.29064C4.25857 7.12047 3.28551 6.98233 3.2751 6.99294C3.2698 6.99824 3.87041 7.7424 4.6149 8.64613C5.35919 9.54455 5.98123 10.3046 5.99184 10.3365C5.99715 10.363 5.12531 10.7352 4.04592 11.1657C2.96653 11.5911 2.04673 11.9631 2.00428 11.9898C1.94571 12.027 2.48265 12.2449 3.93939 12.7871C5.04531 13.1964 5.95429 13.5524 5.9596 13.5845C5.97021 13.611 5.36939 14.3978 4.6251 15.3334C3.88082 16.2689 3.28 17.0398 3.29061 17.0502C3.30122 17.0555 4.25816 16.9015 5.41184 16.7048C6.57082 16.5081 7.53307 16.3646 7.5545 16.3805C7.57042 16.4018 7.44286 17.38 7.26735 18.56C7.09715 19.74 6.95899 20.7129 6.9696 20.7235C6.9749 20.7341 7.7298 20.1228 8.64429 19.368C9.55348 18.6079 10.3137 17.9913 10.3349 17.9966C10.3508 17.9966 10.7178 18.8789 11.1484 19.9634C11.5737 21.0424 11.9459 21.9567 11.9725 21.9994C12.0043 22.0471 12.2596 21.4305 12.7647 20.0591C13.1741 18.9536 13.5302 18.0445 13.5623 18.0392C13.5888 18.0286 14.3757 18.6293 15.3114 19.3735C16.2472 20.1177 17.018 20.7131 17.0286 20.7078C17.0339 20.6972 16.8798 19.7404 16.6831 18.5869C16.4864 17.4281 16.3429 16.466 16.3641 16.4448C16.38 16.4289 17.3584 16.5564 18.5386 16.7266C19.7188 16.9021 20.6919 17.0402 20.7025 17.0296C20.7131 17.019 20.0911 16.2589 19.3255 15.334C18.56 14.409 17.9433 13.6437 17.9539 13.6383C17.9592 13.633 18.8684 13.2715 19.9635 12.8409C21.0586 12.4104 21.9731 12.0382 21.9996 12.017C22.0208 11.9958 21.1384 11.6448 20.0325 11.2302C18.9319 10.8209 18.0229 10.4648 18.0176 10.4383C18.007 10.4117 18.6078 9.62494 19.3521 8.68939C20.0964 7.75383 20.6919 6.98314 20.6866 6.97253C20.676 6.96723 19.719 7.12128 18.5653 7.31798C17.4064 7.51468 16.4441 7.65813 16.4229 7.64221C16.407 7.62099 16.5345 6.64279 16.7047 5.46279C16.8802 4.28278 17.0184 3.30989 17.0078 3.29927C17.0025 3.29397 16.237 3.9106 15.3119 4.67598C14.3868 5.44136 13.6265 6.05799 13.6159 6.04738C13.6106 6.04208 13.249 5.13305 12.8184 4.03813C12.3878 2.94321 12.0155 2.02357 11.9943 2.00235C11.9727 1.98052 11.6165 2.86282 11.2072 3.96855ZM12.6533 5.89802C12.967 6.70074 13.2435 7.37573 13.2594 7.39695C13.2806 7.41817 13.8708 6.96111 14.5672 6.38161C15.269 5.80212 15.8484 5.32914 15.8537 5.33444C15.8643 5.34505 15.758 6.09452 15.6251 7.00885C15.4923 7.92319 15.3912 8.67796 15.4019 8.68857C15.4125 8.69387 16.1515 8.57695 17.0553 8.4227C17.9539 8.26864 18.6876 8.15172 18.6876 8.16233C18.6876 8.16764 18.2198 8.76305 17.6508 9.48598C17.0821 10.2036 16.6141 10.8096 16.6141 10.8309C16.6141 10.8521 17.3 11.118 18.1345 11.4263C18.9692 11.7346 19.6604 12.0003 19.6764 12.0164C19.687 12.0323 19.0066 12.3194 18.1666 12.6489C17.3266 12.9785 16.6247 13.2602 16.6035 13.2815C16.5823 13.3027 17.0394 13.8928 17.619 14.589C18.1984 15.2907 18.6717 15.87 18.661 15.8806C18.6557 15.8859 17.9061 15.7849 16.9917 15.6468C16.0772 15.5139 15.3223 15.4129 15.3117 15.4236C15.3063 15.4342 15.4233 16.173 15.5776 17.0714C15.7319 17.9752 15.8488 18.7087 15.8382 18.7087C15.8329 18.7087 15.2374 18.241 14.5143 17.6722C13.7965 17.1033 13.1904 16.6356 13.1692 16.6356C13.148 16.6356 12.8821 17.3214 12.5737 18.156C12.2653 18.9905 11.9994 19.6869 11.9835 19.6973C11.9676 19.7079 11.6804 19.0276 11.3508 18.1878C11.0212 17.3479 10.7341 16.6462 10.7182 16.625C10.697 16.6038 10.1067 17.0608 9.41021 17.6403C8.70838 18.2196 8.12899 18.6928 8.11838 18.6822C8.11307 18.6769 8.21409 17.9274 8.35225 17.0131C8.48511 16.0987 8.58613 15.344 8.57552 15.3334C8.56491 15.3228 7.82593 15.445 6.92735 15.5992C6.02347 15.7535 5.2898 15.8704 5.2898 15.8598C5.2898 15.8545 5.75756 15.2538 6.33184 14.5308C6.90062 13.8079 7.34735 13.1966 7.32592 13.1754C7.3047 13.1541 6.62429 12.8883 5.82143 12.5906C5.01857 12.2929 4.33816 12.0325 4.31694 12.0111C4.29572 11.9952 4.96551 11.7081 5.80551 11.3732C6.64552 11.0437 7.35266 10.7566 7.37388 10.7407C7.39511 10.7194 6.93797 10.1293 6.35837 9.43293C5.77878 8.73121 5.30572 8.15192 5.31633 8.14131C5.32164 8.13601 6.07123 8.23701 6.98572 8.37515C7.90021 8.50799 8.65511 8.60899 8.66572 8.59838C8.67103 8.58777 8.55409 7.84891 8.3998 6.94519C8.24572 6.04677 8.12858 5.31322 8.1394 5.31322C8.15001 5.31322 8.75083 5.7809 9.46858 6.35509C10.1863 6.92907 10.7978 7.37573 10.8243 7.349C10.8455 7.32778 11.0902 6.69523 11.3719 5.95107C11.6484 5.20691 11.9035 4.52111 11.9353 4.43602C11.9833 4.3138 12.0045 4.29257 12.0363 4.35624C12.0631 4.39909 12.3396 5.0955 12.6533 5.89802Z" fill="white"/>
<path d="M11.3657 5.57523C11.0382 6.45557 10.7533 7.18263 10.7321 7.18688C10.7109 7.19536 10.0813 6.71479 9.33274 6.11946C8.58417 5.52414 7.96751 5.04781 7.95903 5.05205C7.95478 5.06054 8.0738 5.82596 8.23119 6.75299C8.38858 7.67577 8.5076 8.44544 8.49486 8.46258C8.47788 8.47531 7.69519 8.37329 6.75102 8.2329C5.80686 8.09676 5.02841 7.98625 5.02008 7.99474C5.01584 7.99898 5.49633 8.59431 6.09192 9.31729C6.68735 10.036 7.18498 10.6441 7.19347 10.6696C7.19772 10.6908 6.50025 10.9885 5.63674 11.333C4.77322 11.6733 4.03739 11.9709 4.00343 11.9923C3.95657 12.022 4.38612 12.1963 5.55151 12.63C6.43625 12.9575 7.16343 13.2423 7.16768 13.268C7.17617 13.2892 6.69551 13.9186 6.10008 14.6671C5.50465 15.4155 5.024 16.0322 5.03249 16.0406C5.04098 16.0448 5.80653 15.9216 6.72947 15.7642C7.65666 15.6068 8.42645 15.4921 8.4436 15.5048C8.45633 15.5218 8.35429 16.3044 8.21388 17.2484C8.07772 18.1924 7.96719 18.9707 7.97568 18.9792C7.97992 18.9877 8.58384 18.4986 9.31544 17.8948C10.0428 17.2867 10.6509 16.7934 10.6679 16.7977C10.6807 16.7977 10.9742 17.5035 11.3187 18.3711C11.659 19.2343 11.9567 19.9658 11.978 19.9999C12.0034 20.0381 12.2077 19.5448 12.6118 18.4477C12.9393 17.5632 13.2242 16.836 13.2498 16.8318C13.271 16.8233 13.9006 17.3039 14.6492 17.8992C15.3977 18.4945 16.0144 18.9708 16.0229 18.9666C16.0271 18.9581 15.9039 18.1927 15.7465 17.2699C15.5891 16.3429 15.4743 15.5732 15.4913 15.5562C15.504 15.5435 16.2867 15.6455 17.2309 15.7817C18.175 15.9221 18.9535 16.0326 18.962 16.0241C18.9705 16.0156 18.4728 15.4075 17.8604 14.6676C17.248 13.9276 16.7546 13.3153 16.7631 13.3111C16.7674 13.3068 17.4947 13.0176 18.3708 12.6731C19.2469 12.3287 19.9785 12.031 19.9997 12.014C20.0167 11.997 19.3107 11.7162 18.426 11.3845C17.5455 11.0571 16.8183 10.7722 16.8141 10.751C16.8056 10.7298 17.2862 10.1003 17.8817 9.3519C18.4771 8.60345 18.9535 7.9869 18.9493 7.97841C18.9408 7.97417 18.1752 8.09742 17.2523 8.25478C16.3251 8.41214 15.5553 8.52689 15.5383 8.51416C15.5256 8.49718 15.6276 7.71462 15.7638 6.77062C15.9042 5.82662 16.0147 5.0483 16.0062 5.03981C16.002 5.03557 15.3896 5.52887 14.6495 6.14117C13.9094 6.75348 13.3012 7.24678 13.2927 7.23829C13.2885 7.23405 12.9992 6.50683 12.6547 5.63089C12.3102 4.75496 12.0124 4.01925 11.9954 4.00227C11.9781 3.9848 11.6932 4.69064 11.3657 5.57523ZM12.5226 7.11881C12.7736 7.76098 12.9948 8.30097 13.0075 8.31795C13.0245 8.33493 13.4967 7.96927 14.0537 7.50568C14.6152 7.04208 15.0787 6.6637 15.083 6.66794C15.0914 6.67643 15.0064 7.276 14.9001 8.00747C14.7938 8.73894 14.713 9.34276 14.7215 9.35124C14.73 9.35549 15.3212 9.26195 16.0443 9.13855C16.7631 9.0153 17.3501 8.92177 17.3501 8.93025C17.3501 8.9345 16.9759 9.41083 16.5207 9.98918C16.0657 10.5633 15.6913 11.0481 15.6913 11.0651C15.6913 11.0821 16.24 11.2948 16.9076 11.5414C17.5754 11.7881 18.1284 12.0006 18.1411 12.0135C18.1496 12.0262 17.6052 12.2559 16.9332 12.5195C16.2612 12.7832 15.6998 13.0086 15.6828 13.0256C15.6658 13.0425 16.0315 13.5146 16.4952 14.0716C16.9587 14.633 17.3373 15.0964 17.3288 15.1049C17.3246 15.1091 16.7249 15.0283 15.9933 14.9178C15.2617 14.8115 14.6578 14.7307 14.6493 14.7392C14.6451 14.7477 14.7386 15.3388 14.8621 16.0575C14.9855 16.7805 15.079 17.3674 15.0705 17.3674C15.0663 17.3674 14.5899 16.9932 14.0114 16.5381C13.4372 16.083 12.9523 15.7089 12.9354 15.7089C12.9184 15.7089 12.7056 16.2575 12.459 16.9252C12.2123 17.5928 11.9995 18.1499 11.9868 18.1582C11.9741 18.1667 11.7443 17.6225 11.4807 16.9506C11.217 16.2787 10.9873 15.7174 10.9745 15.7004C10.9576 15.6834 10.4854 16.0491 9.92817 16.5126C9.3667 16.9761 8.90319 17.3546 8.8947 17.3461C8.89046 17.3419 8.97127 16.7423 9.0818 16.0109C9.18809 15.2794 9.26891 14.6756 9.26042 14.6671C9.25193 14.6586 8.66074 14.7564 7.94188 14.8798C7.21878 15.0032 6.63184 15.0967 6.63184 15.0882C6.63184 15.084 7.00604 14.6034 7.46547 14.0251C7.92049 13.4467 8.27788 12.9577 8.26074 12.9407C8.24376 12.9237 7.69943 12.711 7.05715 12.4728C6.41486 12.2347 5.87053 12.0264 5.85355 12.0092C5.83657 11.9965 6.37241 11.7668 7.04441 11.499C7.71641 11.2353 8.28213 11.0057 8.29911 10.9929C8.31609 10.976 7.95037 10.5039 7.4867 9.94674C7.02302 9.38536 6.64457 8.92193 6.65306 8.91344C6.65731 8.9092 7.25698 8.99 7.98858 9.10051C8.72017 9.20678 9.32409 9.28758 9.33258 9.27909C9.33682 9.27061 9.24327 8.67952 9.11984 7.95654C8.99658 7.23781 8.90286 6.65097 8.91152 6.65097C8.92001 6.65097 9.40066 7.02511 9.97487 7.48446C10.5491 7.94365 11.0382 8.30097 11.0594 8.27959C11.0764 8.26261 11.2722 7.75658 11.4975 7.16125C11.7187 6.56592 11.9228 6.01728 11.9483 5.94921C11.9866 5.85143 12.0036 5.83445 12.0291 5.88538C12.0505 5.91966 12.2717 6.47679 12.5226 7.11881Z" fill="white"/>
</svg>
