<svg width="24" height="25" viewBox="0 0 24 25" fill="none" xmlns="http://www.w3.org/2000/svg">
<path d="M11.29 0.034647C10.7354 0.0880356 10.0424 0.280525 9.64974 0.494322C9.26844 0.697342 8.84692 1.12518 8.65058 1.494C8.48309 1.80943 8.40794 2.09816 8.33279 2.70747C8.30395 2.94257 8.26928 3.01751 8.17694 3.06037C8.06712 3.10322 7.95176 3.01751 7.1836 2.30118C6.20165 1.39775 5.55495 0.943466 4.69418 0.558485C3.77574 0.152199 2.97874 0.00795364 2.33178 0.13628C2.04309 0.189669 1.9391 0.248444 1.67344 0.473015C0.616333 1.40314 0.125487 2.60583 0.00985432 4.53563C-0.0306305 5.32151 0.0561604 6.40127 0.223656 7.1176C0.472122 8.17605 1.05531 9.94544 1.84675 12.0195L2.18757 12.9175L1.95074 16.6968C1.69646 20.8503 1.67926 21.3582 1.80627 21.7804C2.06611 22.6998 2.77076 23.3786 3.79902 23.7153C4.70001 24.0095 4.52669 24.0041 12.145 24.0041C18.7236 24.0041 19.2261 23.9987 19.6765 23.9078C20.6296 23.7153 21.3398 23.3786 21.7904 22.8974C22.0849 22.582 22.3911 21.9727 22.472 21.5397C22.5355 21.1975 22.4144 18.7439 22.0794 13.6069L22.0042 12.4576L22.5991 10.8004C23.5694 8.10625 23.8581 7.06911 23.962 5.85564C24.0891 4.42298 23.8927 2.9798 23.4421 1.96935C23.2053 1.44012 22.9338 1.06591 22.4429 0.600853C22.0503 0.226648 21.9981 0.194565 21.6748 0.13579C21.0336 0.0128498 20.2308 0.151709 19.3587 0.53669C18.4289 0.937588 17.6144 1.50967 16.6613 2.42902C16.3551 2.72828 16.0778 2.96902 16.049 2.96902C15.9508 2.96902 15.9103 2.85147 15.841 2.35433C15.6793 1.18371 14.8244 0.355221 13.5307 0.109097C12.9938 0.0130978 11.9195 -0.0295162 11.29 0.034647ZM13.346 0.884445C13.531 0.948608 13.785 1.07693 13.9178 1.16779C14.2182 1.38159 14.5185 1.88412 14.5648 2.26886L14.6053 2.55759L14.4436 2.52551C13.4908 2.35433 10.9667 2.34379 10.0945 2.50935C9.85772 2.55735 9.64974 2.59482 9.63836 2.59482C9.62698 2.59482 9.63254 2.45596 9.65556 2.28477C9.75373 1.50967 10.2909 0.996609 11.2149 0.798731C11.7579 0.686567 12.9187 0.729424 13.346 0.884445ZM4.18588 4.4607C4.59602 4.70119 4.6537 4.75996 4.82702 5.07539L5.01198 5.42829L4.75213 5.7758C4.61348 5.96829 4.37084 6.32633 4.2208 6.58299C4.07077 6.83425 3.93212 7.00519 3.92048 6.96797C3.90883 6.9305 3.78764 6.56707 3.65481 6.16078L3.41799 5.42854L3.53362 4.81384C3.59713 4.4771 3.66645 4.19914 3.68947 4.19914C3.71779 4.19866 3.93741 4.31645 4.18588 4.4607ZM13.9758 4.32698C14.5418 4.44992 15.1424 4.65319 15.5526 4.86698C17.5162 5.88258 18.7985 8.03156 19.4396 11.3725L19.5495 11.9497H12.11L4.66508 11.9497L4.6881 11.8268C4.70556 11.7626 4.77462 11.4312 4.8384 11.0945C5.62957 7.04266 7.62232 4.74919 10.7584 4.27359C11.3824 4.17735 13.4384 4.21482 13.9758 4.32698ZM20.4676 4.80821L20.5833 5.4229L20.3753 6.06429C20.2655 6.42258 20.1615 6.71107 20.1443 6.71107C20.1271 6.71107 20.052 6.59891 19.971 6.4598C19.89 6.32095 19.6648 5.97858 19.4685 5.70601L19.1047 5.20886L19.2375 4.96298C19.3415 4.78127 19.4743 4.66372 19.8035 4.46584C20.0403 4.32159 20.2597 4.2038 20.2888 4.2038C20.3232 4.19865 20.4041 4.47147 20.4676 4.80821Z" fill="white"/>
<path d="M10.8624 4.91497C8.86412 5.26787 7.4662 6.47595 6.59988 8.61955C6.39772 9.11669 6.13788 10.0414 6.00504 10.7311L5.89523 11.3083H12.1042L18.3132 11.3083L18.2727 11.0249C18.1976 10.5116 17.9436 9.52273 17.7126 8.88135C16.9269 6.68436 15.7084 5.44958 13.8774 4.99505C13.2825 4.84542 11.5152 4.80281 10.8624 4.91497Z" fill="white"/>
</svg>
