<svg width="51" height="50" viewBox="0 0 51 50" fill="none" xmlns="http://www.w3.org/2000/svg">
<path fill-rule="evenodd" clip-rule="evenodd" d="M25.2574 50C37.9788 49.9868 48.4932 40.6625 50.2308 28.5454L35.4409 28.5608C33.9598 32.7238 29.9542 35.7093 25.2421 35.7144C20.5301 35.7192 16.5182 32.742 15.0281 28.5822L0.238381 28.5976C2.00171 40.711 12.5359 50.0134 25.2574 50ZM15.0205 21.4393L0.230774 21.4547C1.96829 9.33753 12.4827 0.0132972 25.204 1.42074e-05C37.9256 -0.0132687 48.4597 9.28897 50.223 21.4025L35.4334 21.4179C33.9433 17.2581 29.9314 14.2808 25.2193 14.2857C20.5072 14.2907 16.5017 17.2763 15.0205 21.4393ZM31.2431 24.9937C31.2465 28.2812 28.5576 30.949 25.237 30.9524C21.9165 30.956 19.2219 28.2937 19.2184 25.0062C19.2149 21.7189 21.9038 19.0511 25.2244 19.0476C28.545 19.0442 31.2397 21.7063 31.2431 24.9937Z" fill="white"/>
</svg>
