<svg width="24" height="25" viewBox="0 0 24 25" fill="none" xmlns="http://www.w3.org/2000/svg">
<path d="M0 0.00415039V24.0042H24V0.00415039H0ZM9 15.4341V10.2899H15V15.4341H9ZM15 17.1498V22.2941H9V17.1498H15ZM15 3.43552V8.57978H9V3.43552H15ZM7.50122 3.43552V8.57978H1.50122V3.43552H7.50122ZM1.49878 10.2899H7.49878V15.4341H1.49878V10.2899ZM16.5012 10.2899H22.5012V15.4341H16.5012V10.2899ZM16.5012 8.57698V3.43552H22.5012V8.57978H16.5012V8.57698ZM1.49878 17.1498H7.49878V22.2941H1.49878V17.1498ZM16.5012 22.2913V17.1498H22.5012V22.2941H16.5012V22.2913Z" fill="white"/>
</svg>
