<?xml version="1.0" encoding="UTF-8"?>
<svg width="112px" height="112px" viewBox="0 0 112 112" version="1.1" xmlns="http://www.w3.org/2000/svg" xmlns:xlink="http://www.w3.org/1999/xlink">
    <title>Page-1</title>
    <g id="Module-workers" stroke="none" stroke-width="1" fill="none" fill-rule="evenodd">
        <g id="Login" transform="translate(-1320.000000, -474.000000)" fill="#131E29" fill-rule="nonzero">
            <path d="M1376,474 C1373.67805,474 1371.41073,474.136585 1369.17073,474.437073 C1341.47122,477.769756 1320,501.399024 1320,530 C1320,560.922927 1345.07707,586 1376,586 C1404.60098,586 1428.23024,564.52878 1431.56293,536.829268 C1431.86341,534.589268 1432,532.321951 1432,530 C1432,527.678049 1431.86341,525.410732 1431.56293,523.170732 L1382.82927,523.170732 L1382.82927,474.437073 C1380.58927,474.136585 1378.32195,474 1376,474 M1369.46376,488 L1369.46376,536.536243 L1418,536.536243 C1414.75097,556.86516 1397.09821,572 1376.28371,572 C1352.96765,572 1334,553.032346 1334,529.71629 C1334,508.901793 1349.13484,491.251754 1369.46376,488" id="Page-1"></path>
        </g>
    </g>
</svg>